<svg xmlns="http://www.w3.org/2000/svg" viewBox="0 0 1000 1000" fill="#fff"><path d="M357.72 20.4c-11.7 5.56-29.54 15.73-39.13 22.44-23.21 15.73-56.77 48.33-74.61 72.31l-14 18.99-17.46-15.15c-14.96-13.04-18.22-15.15-24.55-15.15-9.78 0-16.69 6.71-16.69 16.11 0 5.95 3.26 10.55 25.89 37.02 16.3 18.99 28.39 31.26 32.22 32.8 9.02 4.03 19.37.38 25.13-8.82 2.3-3.84 10.17-16.5 17.45-27.81 27.43-43.92 63.3-83.63 103.19-114.32 11.32-8.63 20.52-17.07 20.52-18.61 0-1.73-.96-4.6-1.92-6.71-3.43-6.14-12.83-4.42-36.04 6.9z"/><path d="M96.67 20.02c-2.49 1.15-6.52 4.79-8.63 7.67-4.03 5.37-4.03 6.71-4.03 121.61v116.04l6.14 5.37c3.84 3.45 9.21 5.95 14.39 6.71 4.6.57 55.82.96 113.74.57 97.06-.57 106.07-.77 110.87-4.03 11.32-7.29 10.93-5.37 10.55-88.23l-.58-76.15-12.66 15.92c-7.1 8.63-17.26 22.06-22.63 29.92l-9.78 14.39v60.62H131V65.47h116.81L262 52.43c7.67-7.29 19.76-17.65 26.85-23.21 7.1-5.56 12.85-10.55 12.85-10.93 0-.38-45.08-.77-100.13-.77-75.75 0-101.45.58-104.9 2.5zm349.66 41.62c-2.11.77-6.33 4.22-9.01 7.67-10.17 11.89-5.37 29.54 9.4 35.68 9.78 4.03 446.73 4.03 456.32 0 12.85-5.37 17.84-21.29 10.55-33.18-7.86-12.85 8.25-12.08-239.19-11.89-123.15-.01-225.76.76-228.07 1.72zm0 104.34c-13.04 5.75-18.22 21.48-10.93 33.95 6.9 11.51 3.26 11.32 142.9 11.32 122.57 0 127.36-.19 132.73-3.65 16.11-10.74 14-34.14-3.84-41.62-9.2-3.83-252.03-3.83-260.86 0zM95.13 378.13c-12.47 7.48-12.08 3.64-12.08 126.98 0 108.75.19 112.02 3.84 118.15 7.29 12.08 5.75 11.89 126.79 11.89 119.69 0 118.15.19 125.83-11.13 3.26-4.79 3.45-12.28 3.45-119.31 0-110.1-.19-114.32-3.84-119.69-7.29-10.74-6.33-10.74-126.98-10.74-106.65.01-111.06.2-117.01 3.85zm198.91 126.59v82.48H131V422.24h163.04v82.48zm152.29-85.55c-13.04 5.75-18.22 21.48-10.93 33.95 7.1 11.89-6.14 11.32 239.38 11.32 247.05 0 230.94.77 238.8-12.08 7.29-11.89 2.3-27.81-10.55-33.19-9.59-3.83-447.49-4.02-456.7 0zm-7.67 109.33c-5.37 5.37-6.52 8.06-6.52 14.39 0 4.41 1.34 10.55 2.88 13.62 6.14 11.89 1.73 11.51 141.94 11.51s135.8.38 141.94-11.51c1.53-3.07 2.88-9.21 2.88-13.62 0-6.33-1.15-9.01-6.52-14.39l-6.52-6.52H445.18l-6.52 6.52zM94.36 733.55c-3.45 2.3-7.48 6.52-8.82 9.02-1.92 3.64-2.49 31.07-2.49 117 0 109.14.19 112.4 3.84 118.54C94.18 990.19 92.64 990 213.68 990c119.69 0 118.15.19 125.83-11.12 3.26-4.79 3.45-12.66 4.03-115.66.58-121.99.58-121.99-10.93-129.66l-6.52-4.41H100.88l-6.52 4.4zm199.68 126.02v82.48H131V777.09h163.04v82.48zm152.29-85.55c-9.01 4.03-14.19 11.7-14.19 21.48 0 6.91 1.15 9.78 6.52 15.73l6.52 7.1 226.53.58c250.5.58 234.01 1.34 241.87-11.7 7.29-11.89 2.3-27.81-10.55-33.18-9.59-3.84-447.49-4.04-456.7-.01zm-7.67 109.33c-5.37 5.37-6.52 8.05-6.52 14.39 0 10.17 4.22 18.6 11.51 22.25 8.44 4.41 258.18 4.41 266.62 0 7.29-3.64 11.51-12.08 11.51-22.25 0-6.33-1.15-9.01-6.52-14.39l-6.52-6.52H445.18l-6.52 6.52z"/></svg>