<?xml version="1.0" encoding="utf-8"?>
<!-- Generator: Adobe Illustrator 18.1.1, SVG Export Plug-In . SVG Version: 6.00 Build 0)  -->
<svg version="1.1" id="Layer_1" xmlns="http://www.w3.org/2000/svg" xmlns:xlink="http://www.w3.org/1999/xlink" x="0px" y="0px"
	 viewBox="0 0 105.7 95" enable-background="new 0 0 105.7 95" xml:space="preserve" fill="#fff">
<g>
	<path d="M91.5,18.8H14.2c-3.1,0-5.7-2.5-5.7-5.7v-1.6c0-3.1,2.5-5.7,5.7-5.7h77.3c3.1,0,5.7,2.5,5.7,5.7v1.6
		C97.2,16.3,94.6,18.8,91.5,18.8z"/>
	<path d="M91.5,54H14.2c-3.1,0-5.7-2.5-5.7-5.7v-1.6c0-3.1,2.5-5.7,5.7-5.7h77.3c3.1,0,5.7,2.5,5.7,5.7v1.6
		C97.2,51.4,94.6,54,91.5,54z"/>
	<path d="M91.5,89.1H14.2c-3.1,0-5.7-2.5-5.7-5.7v-1.6c0-3.1,2.5-5.7,5.7-5.7h77.3c3.1,0,5.7,2.5,5.7,5.7v1.6
		C97.2,86.6,94.6,89.1,91.5,89.1z"/>
</g>
</svg>
