<?xml version="1.0" encoding="utf-8"?>
<!-- Svg Vector Icons : http://www.onlinewebfonts.com/icon -->
<!DOCTYPE svg PUBLIC "-//W3C//DTD SVG 1.1//EN" "http://www.w3.org/Graphics/SVG/1.1/DTD/svg11.dtd">
<svg version="1.1" xmlns="http://www.w3.org/2000/svg" xmlns:xlink="http://www.w3.org/1999/xlink" x="0px" y="0px" viewBox="0 0 1000 1000" enable-background="new 0 0 1000 1000" xml:space="preserve" fill="#ffffff">
<g><g transform="translate(0.000000,512.000000) scale(0.100000,-0.100000)"><path d="M3577.2,4916c-117-55.6-295.4-157.3-391.3-224.4c-232.1-157.3-567.7-483.3-746.1-723.1l-140-189.9l-174.6,151.5c-149.6,130.4-182.2,151.5-245.5,151.5c-97.8,0-166.9-67.1-166.9-161.1c0-59.5,32.6-105.5,258.9-370.2c163-189.9,283.9-312.6,322.2-328c90.2-40.3,193.7-3.8,251.3,88.2c23,38.4,101.7,165,174.5,278.1c274.3,439.2,633,836.3,1031.9,1143.2c113.2,86.3,205.2,170.7,205.2,186.1c0,17.3-9.6,46-19.2,67.1C3903.3,5046.4,3809.3,5029.2,3577.2,4916z"/><path d="M966.7,4919.8c-24.9-11.5-65.2-47.9-86.3-76.7c-40.3-53.7-40.3-67.1-40.3-1216.1V2466.6l61.4-53.7c38.4-34.5,92.1-59.5,143.9-67.1c46-5.7,558.2-9.6,1137.4-5.7c970.6,5.7,1060.7,7.7,1108.7,40.3c113.2,72.9,109.3,53.7,105.5,882.3l-5.8,761.5l-126.6-159.2c-71-86.3-172.6-220.6-226.3-299.2l-97.8-143.9v-303.1v-303.1h-815.2H1310v824.8v824.8h583.1h585l141.9,130.4c76.7,72.9,197.6,176.5,268.5,232.1c71,55.6,128.5,105.5,128.5,109.3c0,3.8-450.8,7.7-1001.3,7.7C1258.2,4944.8,1001.2,4939,966.7,4919.8z"/><path d="M4463.3,4503.6c-21.1-7.7-63.3-42.2-90.1-76.7c-101.7-118.9-53.7-295.4,94-356.8c97.8-40.3,4467.3-40.3,4563.2,0c128.5,53.7,178.4,212.9,105.5,331.8c-78.6,128.5,82.5,120.8-2391.9,118.9C5512.5,4520.9,4486.4,4513.2,4463.3,4503.6z"/><path d="M4463.3,3460.2c-130.4-57.5-182.2-214.8-109.3-339.5c69-115.1,32.6-113.2,1429-113.2c1225.7,0,1273.6,1.9,1327.3,36.5c161.1,107.4,140,341.4-38.4,416.2C6979.9,3498.5,4551.6,3498.5,4463.3,3460.2z"/><path d="M951.3,1338.7c-124.7-74.8-120.8-36.4-120.8-1269.8c0-1087.5,1.9-1120.2,38.4-1181.5c72.9-120.8,57.5-118.9,1267.9-118.9c1196.9,0,1181.5-1.9,1258.3,111.3c32.6,47.9,34.5,122.8,34.5,1193.1c0,1101-1.9,1143.2-38.4,1196.9c-72.9,107.4-63.3,107.4-1269.8,107.4C1054.9,1377.1,1010.8,1375.2,951.3,1338.7z M2940.4,72.8V-752h-815.2H1310V72.8v824.8h815.2h815.2V72.8z"/><path d="M4463.3,928.3c-130.4-57.5-182.2-214.8-109.3-339.5c71-118.9-61.4-113.2,2393.8-113.2c2470.5,0,2309.4-7.7,2388,120.8c72.9,118.9,23,278.1-105.5,331.9C8934.4,966.6,4555.4,968.5,4463.3,928.3z"/><path d="M4386.6-165c-53.7-53.7-65.2-80.6-65.2-143.9c0-44.1,13.4-105.5,28.8-136.2c61.4-118.9,17.3-115.1,1419.4-115.1c1402.1,0,1358-3.8,1419.4,115.1c15.3,30.7,28.8,92.1,28.8,136.2c0,63.3-11.5,90.1-65.2,143.9l-65.2,65.2H5769.6H4451.8L4386.6-165z"/><path d="M943.6-2215.5c-34.5-23-74.8-65.2-88.2-90.2c-19.2-36.4-24.9-310.7-24.9-1170c0-1091.4,1.9-1124,38.4-1185.4c72.9-120.8,57.5-118.9,1267.9-118.9c1196.9,0,1181.5-1.9,1258.3,111.2c32.6,47.9,34.5,126.6,40.3,1156.6c5.8,1219.9,5.8,1219.9-109.3,1296.6l-65.2,44.1H2134.8H1008.8L943.6-2215.5z M2940.4-3475.7v-824.8h-815.2H1310v824.8v824.8h815.2h815.2V-3475.7z"/><path d="M4463.3-2620.2c-90.1-40.3-141.9-117-141.9-214.8c0-69.1,11.5-97.8,65.2-157.3l65.2-71l2265.3-5.8c2505-5.8,2340.1-13.4,2418.7,117c72.9,118.9,23,278.1-105.5,331.8C8934.4-2581.9,4555.4-2579.9,4463.3-2620.2z"/><path d="M4386.6-3713.5c-53.7-53.7-65.2-80.5-65.2-143.9c0-101.7,42.2-186,115.1-222.5c84.4-44.1,2581.8-44.1,2666.2,0c72.9,36.4,115.1,120.8,115.1,222.5c0,63.3-11.5,90.1-65.2,143.9l-65.2,65.2H5769.6H4451.8L4386.6-3713.5z"/></g></g>
</svg>